<svg xmlns="http://www.w3.org/2000/svg" viewBox="0 0 401.77 404.5"><defs><style>.cls-1{fill:#b8aaa0;}.cls-2,.cls-3{fill:none;stroke:#a18f87;stroke-miterlimit:10;}.cls-3{stroke-width:2px;}.cls-4{fill:#a18f87;}</style></defs><g id="Layer_2" data-name="Layer 2"><g id="Layer_1-2" data-name="Layer 1"><ellipse class="cls-1" cx="87.55" cy="188.02" rx="43.7" ry="43.52" transform="translate(-113.05 135.32) rotate(-50.31)"/><path class="cls-2" d="M1.4,263.79c0,139.9,113.69-73.38,159-73.38S173.18,267,215.13,267,281,135.78,312.74,135.78s42.33,113.87,65,113.87,23.06-74.12,23.06-74.12"/><path class="cls-2" d="M1.4,272.34c0,131.91,111.71-64.2,157-64.2s14.8,71.33,56.75,71.33,65.84-122.2,97.61-122.2,42.33,106,65,106,23.06-73.48,23.06-73.48"/><path class="cls-2" d="M1.4,280.89c0,123.92,109.72-55,155-55s16.78,66.05,58.73,66.05S281,178.77,312.74,178.77s42.33,98.18,65,98.18,23.06-72.85,23.06-72.85"/><path class="cls-2" d="M1.4,289.44c0,115.94,107.74-45.84,153-45.84s18.76,60.78,60.71,60.78S281,200.26,312.74,200.26s42.33,90.34,65,90.34,23.06-72.21,23.06-72.21"/><path class="cls-2" d="M1.4,298c0,108,105.76-36.66,151-36.66s20.74,55.5,62.69,55.5,65.84-95.07,97.61-95.07,42.33,82.49,65,82.49,23.06-71.58,23.06-71.58"/><path class="cls-2" d="M1.4,306.54c0,100,103.78-27.48,149-27.48s22.73,50.22,64.68,50.22,65.84-86,97.61-86,42.33,74.64,65,74.64S400.77,247,400.77,247"/><path class="cls-2" d="M1.4,315.09c0,92,101.79-18.29,147.07-18.29s24.71,44.94,66.66,44.94,65.84-77,97.61-77,42.33,66.8,65,66.8,23.06-70.31,23.06-70.31"/><path class="cls-2" d="M1.4,323.65c0,84,99.81-9.12,145.09-9.12s26.69,39.66,68.64,39.66,65.84-67.94,97.61-67.94,42.33,58.95,65,58.95,23.06-69.68,23.06-69.68"/><path class="cls-2" d="M1.4,332.2c0,76,97.83.06,143.11.06s28.67,34.38,70.62,34.38,65.84-58.9,97.61-58.9,42.33,51.11,65,51.11,23.06-69,23.06-69"/><path class="cls-2" d="M1.4,340.75c0,68,95.85,9.24,141.12,9.24s30.66,29.1,72.61,29.1,65.84-49.85,97.61-49.85,42.33,43.26,65,43.26,23.06-68.41,23.06-68.41"/><path class="cls-2" d="M1.4,349.3c0,60,93.86,18.42,139.14,18.42s32.64,23.83,74.59,23.83,65.84-40.82,97.61-40.82,42.33,35.42,65,35.42,23.06-67.78,23.06-67.78"/><path class="cls-2" d="M1.4,357.85c0,52,91.88,27.6,137.16,27.6S173.18,404,215.13,404s65.84-31.77,97.61-31.77,42.33,27.57,65,27.57,23.06-67.14,23.06-67.14"/><path class="cls-3" d="M400.77,173.09V124.25A123.21,123.21,0,0,0,277.6,1H101.07A99.7,99.7,0,0,0,1.4,100.72V300.88a99.7,99.7,0,0,0,99.67,99.72H218.15c100.86,0,182.62-81.81,182.62-182.72Z"/><polygon class="cls-4" points="400.27 332.66 399.77 148.99 401.77 148.99 401.27 332.66 400.27 332.66"/><path class="cls-4" d="M.9,357.86.31,299Q.09,269.55,0,240.1-.11,181.23.4,122.35l2,0q-.75,58.86-.88,117.73-.06,29.45,0,58.87l.34,58.87Z"/></g></g></svg>