<svg xmlns="http://www.w3.org/2000/svg" viewBox="0 0 402 404.5"><defs><style>.cls-1{fill:#fff;}.cls-2,.cls-3{fill:none;stroke:#fff;stroke-miterlimit:10;}.cls-3{stroke-width:2px;}</style></defs><g id="Layer_2" data-name="Layer 2"><g id="Layer_1-2" data-name="Layer 1"><ellipse class="cls-1" cx="87.28" cy="188.02" rx="43.74" ry="43.56" transform="translate(-99.62 98.37) rotate(-39.47)"/><path class="cls-2" d="M1,263.79c0,139.9,113.87-73.38,159.21-73.38S173.05,267,215.06,267,281,135.78,312.83,135.78s42.4,113.87,65.07,113.87S401,175.53,401,175.53"/><path class="cls-2" d="M1,272.34c0,131.91,111.88-64.2,157.23-64.2s14.82,71.33,56.83,71.33,65.95-122.2,97.77-122.2,42.4,106,65.07,106S401,189.82,401,189.82"/><path class="cls-2" d="M1,280.89c0,123.92,109.9-55,155.24-55s16.81,66.05,58.82,66.05S281,178.77,312.83,178.77,355.23,277,377.9,277,401,204.1,401,204.1"/><path class="cls-2" d="M1,289.44C1,405.38,108.91,243.6,154.26,243.6s18.79,60.78,60.8,60.78S281,200.26,312.83,200.26s42.4,90.34,65.07,90.34S401,218.39,401,218.39"/><path class="cls-2" d="M1,298c0,108,105.93-36.66,151.27-36.66s20.78,55.5,62.79,55.5,65.95-95.07,97.77-95.07,42.4,82.49,65.07,82.49S401,232.67,401,232.67"/><path class="cls-2" d="M1,306.54c0,100,103.94-27.48,149.29-27.48s22.76,50.22,64.77,50.22,65.95-86,97.77-86,42.4,74.64,65.07,74.64S401,247,401,247"/><path class="cls-2" d="M1,315.09c0,92,102-18.29,147.3-18.29s24.75,44.94,66.76,44.94,65.95-77,97.77-77,42.4,66.8,65.07,66.8S401,261.24,401,261.24"/><path class="cls-2" d="M1,323.65c0,84,100-9.12,145.32-9.12s26.73,39.66,68.74,39.66,65.95-67.94,97.77-67.94,42.4,58.95,65.07,58.95S401,275.52,401,275.52"/><path class="cls-2" d="M1,332.2c0,76,98,.06,143.33.06s28.72,34.38,70.73,34.38,65.95-58.9,97.77-58.9,42.4,51.11,65.07,51.11,23.1-69,23.1-69"/><path class="cls-2" d="M1,340.75c0,68,96,9.24,141.34,9.24s30.71,29.1,72.72,29.1,65.95-49.85,97.77-49.85,42.4,43.26,65.07,43.26S401,304.09,401,304.09"/><path class="cls-2" d="M1,349.3c0,60,94,18.42,139.36,18.42s32.69,23.83,74.7,23.83,65.95-40.82,97.77-40.82,42.4,35.42,65.07,35.42S401,318.37,401,318.37"/><path class="cls-2" d="M1,357.85c0,52,92,27.6,137.37,27.6S173.05,404,215.06,404s65.95-31.77,97.77-31.77,42.4,27.57,65.07,27.57S401,332.66,401,332.66"/><path class="cls-3" d="M401,173.09V124.25A123.31,123.31,0,0,0,277.63,1H100.82A99.77,99.77,0,0,0,1,100.72V300.88a99.77,99.77,0,0,0,99.82,99.72H218.09c101,0,182.91-81.81,182.91-182.72Z"/><polygon class="cls-1" points="400.5 332.66 400 148.99 402 148.99 401.5 332.66 400.5 332.66"/></g></g></svg>